<svg xmlns="http://www.w3.org/2000/svg" viewBox="0 0 960 600" role="img" aria-labelledby="title description">
  <title id="title">Taxonomy Visualizer quick-start illustration</title>
  <desc id="description">A three-step visual guide showing a group selector, a search field, and an expandable taxonomy tree.</desc>
  <defs>
    <linearGradient id="paper" x1="0" y1="0" x2="1" y2="1">
      <stop offset="0" stop-color="#fbf8ef"/>
      <stop offset="1" stop-color="#f2f7f0"/>
    </linearGradient>
    <filter id="shadow" x="-20%" y="-20%" width="140%" height="150%">
      <feDropShadow dx="0" dy="10" stdDeviation="10" flood-color="#285238" flood-opacity=".12"/>
    </filter>
    <style>
      .card { fill:#fff; stroke:#d6e5d9; stroke-width:2; }
      .label { fill:#31543c; font-family:Georgia,serif; font-size:18px; font-weight:700; }
      .small { fill:#6d7f72; font-family:Arial,sans-serif; font-size:13px; }
      .number { fill:#fff; font-family:Arial,sans-serif; font-size:18px; font-weight:800; text-anchor:middle; dominant-baseline:central; }
      .line { fill:none; stroke:#8fb59a; stroke-width:3; stroke-linecap:round; }
    </style>
  </defs>
  <rect width="960" height="600" rx="34" fill="url(#paper)"/>
  <path d="M-30 130C160 60 188 268 356 202S625 45 990 132" fill="none" stroke="#dbead9" stroke-width="38" opacity=".45"/>
  <path d="M-40 474C192 391 319 588 527 488S782 374 1000 464" fill="none" stroke="#e7efe1" stroke-width="42" opacity=".9"/>

  <g filter="url(#shadow)">
    <rect class="card" x="58" y="116" width="242" height="370" rx="18"/>
    <rect x="81" y="174" width="194" height="48" rx="10" fill="#f7faf6" stroke="#b8d7be"/>
    <path d="m247 193 8 8 8-8" fill="none" stroke="#42834e" stroke-width="3" stroke-linecap="round" stroke-linejoin="round"/>
    <rect x="81" y="280" width="194" height="48" rx="10" fill="#f7faf6" stroke="#b8d7be"/>
    <circle cx="252" cy="304" r="11" fill="none" stroke="#42834e" stroke-width="3"/>
    <path d="m260 312 10 10" stroke="#42834e" stroke-width="3" stroke-linecap="round"/>
    <rect x="81" y="355" width="194" height="72" rx="10" fill="#e9f5eb"/>
    <rect x="98" y="373" width="112" height="8" rx="4" fill="#7faf88"/>
    <rect x="98" y="394" width="82" height="7" rx="3.5" fill="#b7cfba"/>
    <rect x="98" y="412" width="64" height="7" rx="3.5" fill="#d1ded2"/>
  </g>
  <circle cx="77" cy="105" r="22" fill="#43834d"/><text class="number" x="77" y="105">1</text>
  <text class="label" x="82" y="151">Choose a group</text>
  <text class="small" x="99" y="204">Taxon group</text>
  <text class="small" x="99" y="310">Search a name</text>

  <path d="M330 296h64" class="line"/>
  <path d="m382 285 14 11-14 11" fill="none" stroke="#8fb59a" stroke-width="3" stroke-linecap="round" stroke-linejoin="round"/>

  <g filter="url(#shadow)">
    <rect class="card" x="416" y="72" width="484" height="456" rx="20"/>
    <rect x="443" y="98" width="430" height="48" rx="12" fill="#f7faf6" stroke="#b8d7be"/>
    <circle cx="472" cy="122" r="9" fill="none" stroke="#43834d" stroke-width="3"/>
    <path d="m479 129 8 8" stroke="#43834d" stroke-width="3" stroke-linecap="round"/>
    <rect x="505" y="115" width="128" height="8" rx="4" fill="#78957d"/>
    <rect x="660" y="108" width="187" height="28" rx="8" fill="#43834d"/>
    <path d="M661 287h66M661 287l57-89M661 287l57 89M727 198h74M727 287h74M727 376h74M801 198l45-44M801 198l45 44M801 287l45-30M801 287l45 30M801 376l45-44M801 376l45 44" class="line"/>
    <circle cx="661" cy="287" r="18" fill="#295d39"/>
    <circle cx="727" cy="198" r="14" fill="#83aa8c"/>
    <circle cx="727" cy="287" r="14" fill="#83aa8c"/>
    <circle cx="727" cy="376" r="14" fill="#83aa8c"/>
    <circle cx="801" cy="198" r="12" fill="#4f9dd1" stroke="#1f6f9d" stroke-width="3"/>
    <circle cx="801" cy="287" r="12" fill="#83aa8c"/>
    <circle cx="801" cy="376" r="12" fill="#83aa8c"/>
    <circle cx="846" cy="154" r="10" fill="#d3a445"/>
    <circle cx="846" cy="242" r="10" fill="#83aa8c"/>
    <circle cx="846" cy="257" r="10" fill="#83aa8c"/>
    <circle cx="846" cy="317" r="10" fill="#83aa8c"/>
    <circle cx="846" cy="332" r="10" fill="#83aa8c"/>
    <circle cx="846" cy="332" r="10" fill="#83aa8c"/>
    <circle cx="846" cy="420" r="10" fill="#83aa8c"/>
    <path d="M514 429h181" stroke="#e0ebe0" stroke-width="10" stroke-linecap="round"/>
    <path d="M514 454h126" stroke="#edf2ed" stroke-width="10" stroke-linecap="round"/>
  </g>
  <circle cx="436" cy="61" r="22" fill="#43834d"/><text class="number" x="436" y="61">2</text>
  <circle cx="872" cy="472" r="22" fill="#43834d"/><text class="number" x="872" y="472">3</text>
  <text class="label" x="459" y="484">Search, inspect, and expand</text>
</svg>
