<?xml version="1.0" encoding="UTF-8"?>
<svg xmlns="http://www.w3.org/2000/svg" xmlns:xlink="http://www.w3.org/1999/xlink" width="180px" height="180px" viewBox="0 0 247 247" version="1.1">
  <title>Artboard</title>
  <desc>Created with Sketch.</desc>
  <g id="Artboard" stroke="none" stroke-width="1" fill="none" fill-rule="evenodd">
    <g id="Group">
      <rect id="Rectangle" fill-opacity="0" fill="#FFFFFF" x="0" y="0" width="247" height="247"></rect>
      <g id="twitter-logo" transform="translate(0.000000, 23.000000)" fill="#1D9BF0" fill-rule="nonzero">
        <path d="M220.95,50.29 C221.1,52.46 221.1,54.63 221.1,56.82 C221.1,123.55 170.3,200.51 77.41,200.51 L77.41,200.47 C49.97,200.51 23.1,192.65 0,177.83 C3.99,178.31 8,178.55 12.02,178.56 C34.76,178.58 56.85,170.95 74.74,156.9 C53.13,156.49 34.18,142.4 27.56,121.83 C35.13,123.29 42.93,122.99 50.36,120.96 C26.8,116.2 9.85,95.5 9.85,71.46 C9.85,71.24 9.85,71.03 9.85,70.82 C16.87,74.73 24.73,76.9 32.77,77.14 C10.58,62.31 3.74,32.79 17.14,9.71 C42.78,41.26 80.61,60.44 121.22,62.47 C117.15,44.93 122.71,26.55 135.83,14.22 C156.17,-4.9 188.16,-3.92 207.28,16.41 C218.59,14.18 229.43,10.03 239.35,4.15 C235.58,15.84 227.69,25.77 217.15,32.08 C227.16,30.9 236.94,28.22 246.15,24.13 C239.37,34.29 230.83,43.14 220.95,50.29 Z" id="white_background"></path>
      </g>
    </g>
  </g>
</svg>
